<?xml version="1.0" standalone="no"?>
<!DOCTYPE svg PUBLIC "-//W3C//DTD SVG 20010904//EN"
 "http://www.w3.org/TR/2001/REC-SVG-20010904/DTD/svg10.dtd">
<svg version="1.0" xmlns="http://www.w3.org/2000/svg"
 width="250.000000pt" height="250.000000pt" viewBox="0 0 250.000000 250.000000"
 preserveAspectRatio="xMidYMid meet">
<metadata>
Created by potrace 1.11, written by Peter Selinger 2001-2013
</metadata>
<g transform="translate(0.000000,250.000000) scale(0.100000,-0.100000)"
fill="#000000" stroke="none">
<path d="M1242 2460 c-57 -146 -145 -289 -237 -389 -72 -77 -280 -241 -306
-241 -10 0 -26 11 -35 25 -15 23 -15 29 -3 53 7 15 14 41 14 57 0 26 4 30 33
33 36 4 40 -3 15 -30 -13 -15 -15 -23 -7 -36 17 -26 51 -27 64 -2 15 29 -9 67
-56 86 -42 18 -67 7 -90 -39 -9 -18 -18 -33 -19 -35 -2 -2 -21 6 -44 17 -67
35 -116 27 -174 -27 -47 -44 -27 -122 45 -175 30 -23 103 -27 121 -7 10 10 7
12 -12 7 -19 -5 -33 2 -63 33 -25 25 -45 37 -55 33 -34 -13 -44 51 -13 88 20
24 30 20 43 -16 2 -5 13 -2 24 8 56 49 144 -12 142 -101 0 -46 -2 -48 -74
-107 l-74 -60 -93 -5 -93 -5 -5 -85 c-4 -74 -9 -90 -35 -125 -16 -22 -31 -42
-32 -45 -2 -2 -37 -7 -78 -11 -98 -10 -145 -32 -145 -69 0 -27 2 -28 38 -23
34 5 41 1 71 -32 28 -32 32 -43 26 -69 -4 -17 -13 -58 -19 -91 -14 -69 -31
-80 -77 -46 -37 27 -39 27 -39 -10 0 -16 4 -28 9 -25 5 4 28 -15 50 -40 31
-35 47 -67 67 -133 37 -124 85 -204 174 -293 81 -80 188 -142 293 -170 36 -9
49 -18 53 -35 9 -36 -1 -50 -66 -92 -78 -51 -149 -74 -227 -75 -67 -1 -72 -8
-18 -26 26 -9 48 -9 90 0 42 9 63 9 89 -1 59 -21 110 6 213 115 84 90 90 94
148 106 77 16 145 50 201 102 24 23 47 38 50 35 13 -13 -40 -168 -78 -227 -42
-64 -119 -133 -175 -157 -29 -12 -63 -63 -63 -94 0 -5 197 -9 446 -9 245 0
444 3 442 8 -2 4 -9 23 -17 43 -10 25 -25 42 -50 54 -64 30 -132 89 -172 149
-39 58 -79 166 -79 213 l0 25 39 -35 c57 -52 117 -83 200 -106 73 -19 77 -22
154 -106 103 -112 164 -143 219 -114 15 8 37 8 82 0 60 -11 116 -5 123 15 2 5
-25 10 -60 10 -72 2 -155 30 -224 78 -56 39 -68 56 -60 87 6 20 22 29 93 51
201 65 363 226 420 418 33 112 50 144 96 185 21 19 38 44 38 55 0 25 -5 25
-37 0 -34 -27 -62 -26 -67 2 -8 45 -26 123 -32 144 -4 15 4 32 27 59 30 33 37
37 71 32 36 -5 38 -4 38 22 0 37 -53 62 -143 69 -58 4 -71 8 -85 30 -9 13 -38
48 -64 77 -27 28 -48 57 -48 64 0 6 9 29 20 50 10 21 16 41 13 45 -4 3 -42 6
-86 6 l-79 0 -74 62 c-42 34 -79 69 -84 78 -14 25 5 89 36 121 31 33 83 39
104 14 17 -21 30 -19 30 5 0 28 26 25 46 -5 22 -34 10 -89 -18 -82 -14 4 -29
-4 -50 -29 -21 -24 -38 -34 -60 -34 -35 0 -29 -16 9 -23 63 -12 146 50 159
118 8 42 -12 77 -59 105 -41 26 -88 25 -138 -1 -23 -11 -42 -19 -44 -17 -1 2
-10 18 -19 36 -24 46 -55 58 -95 38 -44 -23 -66 -59 -51 -86 13 -25 47 -24 64
2 8 13 6 21 -7 36 -25 27 -21 34 16 30 28 -3 32 -7 32 -33 0 -16 7 -42 14 -57
12 -24 12 -30 -3 -53 -9 -14 -24 -25 -34 -25 -31 0 -274 202 -338 281 -88 110
-162 236 -199 339 l-13 35 -10 -25z m18 -190 c0 -5 -5 -10 -11 -10 -5 0 -7 5
-4 10 3 6 8 10 11 10 2 0 4 -4 4 -10z m-59 -83 c-10 -9 -11 -8 -5 6 3 10 9 15
12 12 3 -3 0 -11 -7 -18z m-11 -21 c0 -2 -8 -10 -17 -17 -16 -13 -17 -12 -4 4
13 16 21 21 21 13z m-40 -56 c-6 -11 -13 -20 -16 -20 -2 0 0 9 6 20 6 11 13
20 16 20 2 0 0 -9 -6 -20z m251 -47 c13 -16 12 -17 -3 -4 -10 7 -18 15 -18 17
0 8 8 3 21 -13z m-331 -46 c0 -2 -10 -12 -22 -23 l-23 -19 19 23 c18 21 26 27
26 19z m381 -14 c13 -16 12 -17 -3 -4 -10 7 -18 15 -18 17 0 8 8 3 21 -13z
m50 -50 c13 -16 12 -17 -3 -4 -10 7 -18 15 -18 17 0 8 8 3 21 -13z m140 -110
c13 -16 12 -17 -3 -4 -10 7 -18 15 -18 17 0 8 8 3 21 -13z m-821 -37 c0 -2 -8
-10 -17 -17 -16 -13 -17 -12 -4 4 13 16 21 21 21 13z m-160 -130 c0 -2 -8 -10
-17 -17 -16 -13 -17 -12 -4 4 13 16 21 21 21 13z m1043 -85 c26 -10 27 -14 27
-81 0 -39 -6 -86 -14 -105 -14 -34 -16 -35 -58 -29 -50 7 -72 -9 -66 -48 3
-21 8 -23 57 -23 54 0 54 0 68 -40 8 -23 13 -68 11 -105 l-3 -65 -70 -3 c-38
-2 -75 -8 -82 -14 -19 -16 -97 34 -132 86 -77 112 -66 266 27 366 69 75 146
95 235 61z m-1114 3 c17 -4 42 -18 56 -32 22 -22 25 -33 25 -103 0 -43 -5 -90
-12 -104 -9 -19 -9 -28 0 -37 8 -8 12 -48 12 -108 0 -136 2 -135 -194 -135
l-151 0 -3 263 -2 262 119 0 c65 0 132 -3 150 -6z m261 -194 l0 -200 61 0 c53
0 60 -2 55 -17 -2 -10 -10 -38 -17 -62 -14 -47 -32 -60 -60 -43 -11 7 -58 12
-109 12 l-90 0 0 255 0 255 80 0 80 0 0 -200z m475 190 c20 -32 55 -198 50
-232 -9 -54 14 -145 52 -201 19 -28 32 -51 31 -52 -15 -9 -129 -36 -143 -34
-10 2 -23 18 -28 34 -16 49 -25 55 -88 55 -58 0 -59 -1 -73 -35 l-15 -35 -75
0 c-42 0 -76 2 -76 5 0 4 118 426 136 488 5 15 19 17 114 17 64 0 111 -4 115
-10z m575 -71 c0 -44 4 -78 9 -75 5 3 25 40 44 81 l36 75 82 0 c61 0 80 -3 76
-12 -3 -7 -31 -68 -62 -135 l-56 -122 65 -125 c36 -69 66 -128 66 -131 0 -3
-32 -5 -70 -5 -89 0 -111 14 -141 88 -38 97 -49 99 -49 9 l0 -77 -35 0 c-19 0
-44 -6 -55 -12 -15 -10 -25 -10 -38 -2 -14 10 -18 32 -22 155 -3 79 -4 195 -2
257 l3 112 75 0 74 0 0 -81z m255 -109 c10 -11 16 -20 13 -20 -3 0 -13 9 -23
20 -10 11 -16 20 -13 20 3 0 13 -9 23 -20z m-1982 -84 c15 -12 16 -18 7 -35
-13 -25 -47 -27 -78 -5 -24 17 -29 40 -9 47 23 10 62 6 80 -7z m2238 -2 c11
-14 10 -19 -10 -35 -29 -24 -67 -24 -80 -2 -22 41 59 74 90 37z m-104 -256
c-3 -8 -6 -5 -6 6 -1 11 2 17 5 13 3 -3 4 -12 1 -19z m-773 -3 l36 -15 0 -66
c0 -37 -5 -83 -11 -104 l-11 -37 -57 1 c-54 1 -56 0 -59 -26 -4 -35 26 -52 77
-43 38 6 38 6 50 -37 7 -24 11 -74 9 -113 l-3 -70 -50 -12 c-66 -17 -119 -7
-168 31 -160 122 -153 374 13 473 61 37 115 43 174 18z m456 -9 c0 -7 -4 -16
-9 -21 -5 -6 -30 -59 -57 -118 l-48 -108 59 -117 c33 -64 63 -125 67 -134 7
-16 -1 -18 -81 -18 l-88 0 -33 77 c-19 43 -37 82 -42 88 -4 5 -8 -30 -8 -78
l0 -87 -80 0 -80 0 0 265 0 265 80 0 79 0 3 -77 3 -78 37 77 37 77 68 3 c78 3
93 1 93 -16z m-1120 -89 c0 -92 -5 -120 -44 -256 -31 -110 -48 -157 -62 -164
-10 -6 -49 -11 -85 -11 -135 0 -210 86 -200 232 1 17 13 28 47 42 63 27 78 26
70 -5 -15 -61 26 -105 65 -69 17 15 19 32 19 176 l0 158 95 0 95 0 0 -103z
m325 36 c11 -41 19 -110 20 -173 2 -111 14 -153 58 -206 24 -29 47 -67 47 -78
0 -3 -40 -6 -89 -6 l-89 0 -11 45 -11 45 -68 0 -68 0 -14 -42 -15 -43 -77 -3
c-45 -2 -78 1 -78 7 0 5 16 65 36 133 19 68 48 170 64 228 16 58 33 117 39
133 l11 27 114 0 114 0 17 -67z m-998 -125 c-3 -8 -6 -5 -6 6 -1 11 2 17 5 13
3 -3 4 -12 1 -19z m2110 -20 c-3 -8 -6 -5 -6 6 -1 11 2 17 5 13 3 -3 4 -12 1
-19z m-1997 -219 c15 -28 5 -23 -15 7 -9 15 -12 23 -6 20 6 -4 16 -16 21 -27z
m56 -61 l29 -33 -32 29 c-31 28 -38 36 -30 36 2 0 16 -15 33 -32z m1764 -12
c0 -2 -8 -10 -17 -17 -16 -13 -17 -12 -4 4 13 16 21 21 21 13z m-1060 -10 c0
-2 -8 -10 -17 -17 -16 -13 -17 -12 -4 4 13 16 21 21 21 13z m-40 -40 c0 -2 -8
-10 -17 -17 -16 -13 -17 -12 -4 4 13 16 21 21 21 13z m490 -32 c0 -2 -9 0 -20
6 -11 6 -20 13 -20 16 0 2 9 0 20 -6 11 -6 20 -13 20 -16z m45 -32 c-3 -3 -11
0 -18 7 -9 10 -8 11 6 5 10 -3 15 -9 12 -12z m-495 -305 c0 -2 -10 -12 -22
-23 l-23 -19 19 23 c18 21 26 27 26 19z m-50 -57 c0 -5 -4 -10 -10 -10 -5 0
-10 5 -10 10 0 6 5 10 10 10 6 0 10 -4 10 -10z m480 0 c0 -5 -4 -10 -10 -10
-5 0 -10 5 -10 10 0 6 5 10 10 10 6 0 10 -4 10 -10z"/>
<path d="M480 1440 c0 -51 12 -64 38 -38 26 26 8 88 -25 88 -9 0 -13 -16 -13
-50z"/>
<path d="M487 1294 c-4 -4 -7 -29 -7 -56 0 -42 3 -48 20 -48 31 0 48 45 30 78
-16 27 -32 37 -43 26z"/>
<path d="M1178 1340 c-8 -32 -13 -61 -10 -65 3 -3 21 -5 40 -5 28 0 33 3 29
18 -3 9 -11 38 -18 65 -7 26 -16 47 -19 47 -3 0 -13 -27 -22 -60z"/>
<path d="M1027 820 c-10 -33 -17 -62 -17 -65 0 -3 18 -5 41 -5 29 0 39 4 35
13 -2 6 -12 36 -21 65 -9 28 -18 52 -19 52 -2 0 -10 -27 -19 -60z"/>
<path d="M254 386 c-29 -29 -34 -41 -34 -83 0 -84 47 -123 148 -123 45 0 73 7
119 30 34 17 67 38 74 47 8 9 -13 2 -51 -17 -112 -56 -213 -51 -256 15 -19 29
-12 57 22 84 21 16 22 20 7 25 -14 6 -15 9 -2 21 14 14 31 18 62 16 14 -1 17
-6 12 -22 -4 -13 0 -34 11 -54 14 -27 16 -38 6 -59 -9 -21 -9 -24 4 -19 8 3
21 18 29 34 37 71 0 139 -76 139 -33 0 -47 -6 -75 -34z"/>
<path d="M2105 395 c-16 -15 -25 -36 -25 -55 0 -36 23 -85 43 -93 12 -5 13 0
4 23 -8 22 -7 33 6 54 11 16 15 35 11 51 -5 20 -2 25 12 26 32 2 48 -2 63 -16
13 -12 12 -15 -1 -20 -14 -5 -11 -12 15 -35 28 -25 30 -31 22 -55 -27 -75
-144 -93 -260 -41 -58 26 -59 26 -32 3 62 -52 195 -74 256 -43 46 24 64 61 58
119 -3 41 -11 56 -36 79 -42 37 -101 39 -136 3z"/>
</g>
</svg>
